<svg width="981" height="519" viewBox="0 0 981 519" fill="none" xmlns="http://www.w3.org/2000/svg">
<path d="M642.788 172.117H634.589C638.707 163.167 640.84 153.066 640.84 142.016C640.84 126.574 636.331 112.601 627.742 101.35C632.283 92.4896 634.576 82.6245 634.576 71.9072C634.576 49.4682 625.672 30.7909 608.831 17.8983C594.141 6.64766 574.508 0.939148 550.473 0.939148H202.462V88.1251L207.564 102.964L163.985 184.303L182.21 199.634C188.574 204.983 196.338 209.091 205.969 212.188C214.716 215 224.567 216.42 235.248 216.42C249.383 216.42 262.352 213.67 273.741 208.363V213.192H448.386H496.908H553.501C579.823 213.192 599.876 207.719 614.803 196.468C617.801 194.21 620.536 191.758 623.033 189.139H642.788V172.117Z" fill="#0E0F0E"/>
<path d="M980.268 182.613C980.268 182.613 246.756 181.428 214.874 181.428L125.692 181.809V182.017L0.251465 182.627V343.545L42.9384 339.859V393.743L28.7095 396.487V512.07L153.111 482.814L153.109 454.202L304.108 422.944L385.628 406.075L490.347 384.405C492.137 384.038 493.713 383.857 495.154 383.857C498.654 383.857 502.399 384.973 509.262 387.114C514.672 388.804 521.408 390.903 529.488 392.58L591.757 405.458L657.233 419.002V419.009L823.209 453.336C825.488 457.243 827.878 460.991 830.407 464.497C844.283 483.77 861.208 495.907 880.709 500.59C885.981 501.851 891.219 502.496 896.29 502.496C899.913 502.496 903.481 502.17 906.952 501.519L980.268 518.762V182.613Z" fill="#0E0F0E"/>
<path d="M365.725 112.116H400.274L383.304 62.6168L365.725 112.116ZM303.091 183.839V155.352H316.225L361.887 30.2849H408.559L454.22 155.352H467.556V183.839H398.053V156.765H415.833L408.559 136.155H357.238L350.168 156.765H367.342V183.839H303.091Z" fill="#53C057"/>
<path d="M711.471 191.924C664.097 191.924 625.552 153.378 625.552 105.999C625.552 58.6266 664.097 20.0806 711.471 20.0806C758.85 20.0806 797.396 58.6266 797.396 105.999C797.396 153.378 758.85 191.924 711.471 191.924Z" fill="#53C057"/>
<path d="M711.471 0.938873C653.539 0.938873 606.409 48.0685 606.409 105.998C606.409 163.935 653.539 211.065 711.471 211.065C769.408 211.065 816.538 163.935 816.538 105.998C816.538 48.0685 769.408 0.938873 711.471 0.938873ZM711.471 20.0803C758.85 20.0803 797.396 58.6264 797.396 105.998C797.396 153.377 758.85 191.924 711.471 191.924C664.096 191.924 625.552 153.377 625.552 105.998C625.552 58.6264 664.096 20.0803 711.471 20.0803Z" fill="#0E0F0E"/>
<path d="M749.546 115.67V97.6576L750.64 96.8125L765.39 112.22C767.69 114.617 767.953 118.309 766.027 121.011L751.666 141.122C750.786 142.349 749.373 143.083 747.855 143.083H724.349C720.317 143.083 717.983 141.843 715.967 140.748C713.244 139.266 711.415 136.55 711.069 133.467C710.944 132.38 710.868 131.07 710.868 129.505V127.405L711.367 127.024C712.316 127.274 713.307 127.405 714.332 127.405M749.546 115.67C749.546 122.127 744.267 127.405 737.81 127.405M749.546 115.67V84.9591C749.546 78.5024 744.267 73.2234 737.81 73.2234C731.353 73.2234 726.068 78.5024 726.068 84.9591V115.67M737.81 127.405C731.367 127.405 726.095 122.147 726.068 115.711M737.81 127.405C731.353 127.405 726.068 122.127 726.068 115.67M726.068 115.711V115.718M726.068 115.711C726.068 115.698 726.068 115.684 726.068 115.67M726.068 115.718C726.04 122.147 720.768 127.405 714.332 127.405M726.068 115.718C726.068 115.698 726.068 115.684 726.068 115.67M714.332 127.405C707.875 127.405 702.589 122.127 702.589 115.67M714.332 127.405C720.789 127.405 726.068 122.127 726.068 115.67M726.068 115.67V80.6569C726.068 74.2002 720.789 68.9213 714.332 68.9213C707.875 68.9213 702.589 74.2002 702.589 80.6569V115.67M702.589 115.67V84.9591C702.589 78.5024 697.31 73.2234 690.854 73.2234C684.397 73.2234 679.111 78.5024 679.111 84.9591V115.67M702.589 115.67C702.589 122.127 697.31 127.405 690.854 127.405C684.397 127.405 679.111 122.127 679.111 115.67M679.111 115.67V93.9166C679.111 87.46 673.832 82.1741 667.373 82.1741C660.917 82.1741 655.634 87.46 655.634 93.9166V115.67C655.634 122.127 660.917 127.405 667.373 127.405C673.832 127.405 679.111 122.127 679.111 115.67Z" stroke="#0E0F0E" stroke-width="10.8537" stroke-miterlimit="10"/>
<path d="M304.346 30.285V58.772H290.002V126.865C290.002 146.803 285.083 161.816 275.253 171.923C265.417 182.024 252.084 187.074 235.249 187.074C227.569 187.074 220.801 186.125 214.94 184.248C209.082 182.363 204.467 180.001 201.102 177.174L216.256 148.888C218.005 150.371 220.024 151.549 222.314 152.422C224.605 153.301 227.368 153.738 230.6 153.738C236.793 153.738 241.813 151.653 245.651 147.475C249.492 143.298 251.411 136.966 251.411 128.479V58.772H231.812V30.285H304.346Z" fill="#53C057"/>
<path d="M546.835 156.765C556.263 156.765 563.065 155.22 567.244 152.117C571.417 149.027 573.507 144.177 573.507 137.575C573.507 130.973 571.317 126.158 566.939 123.124C562.562 120.096 555.727 118.579 546.433 118.579H528.653V156.765H546.835ZM567.85 75.9458C567.85 69.6208 565.962 64.9376 562.19 61.9102C558.419 58.8758 552.425 57.3587 544.209 57.3587H528.653V93.3276H544.615C552.559 93.3276 558.419 91.949 562.19 89.1848C565.962 86.4206 567.85 82.0076 567.85 75.9458ZM611.492 142.016C611.492 155.49 606.706 165.827 597.145 173.032C587.58 180.236 573.032 183.839 553.503 183.839H477.737V155.352H492.081V58.7719H477.737V30.2849H550.472C567.981 30.2849 581.488 33.922 590.983 41.1962C600.48 48.4703 605.226 58.7096 605.226 71.907C605.226 79.9917 603.005 86.961 598.558 92.8219C594.114 98.6758 587.918 102.888 579.97 105.444C589.937 107.204 597.681 111.277 603.207 117.672C608.729 124.073 611.492 132.185 611.492 142.016Z" fill="#53C057"/>
<path d="M32.8633 215.076C71.5606 214.889 110.258 214.702 148.956 214.515C148.956 242.33 148.956 270.152 148.957 297.967C139.514 298.785 134.792 299.193 125.349 300.004C125.349 283.751 125.349 275.625 125.349 259.379C117.718 259.74 113.902 259.92 106.271 260.287C106.271 311.781 106.271 363.268 106.272 414.762C111.963 413.668 114.808 413.12 120.498 412.026C120.498 430.01 120.498 439.003 120.498 456.98C96.8262 462.55 84.9908 465.335 61.32 470.898C61.32 451.909 61.32 442.411 61.32 423.415C67.0118 422.32 69.8571 421.773 75.5489 420.679C75.5489 367.702 75.5489 314.725 75.5489 261.749C67.9173 262.109 64.1015 262.289 56.4692 262.656C56.4692 279.976 56.4692 288.635 56.4692 305.955C47.0268 306.772 42.3055 307.181 32.8633 307.998C32.8633 277.024 32.8633 246.05 32.8633 215.076Z" fill="#53C057"/>
<path d="M199.697 303.855C204.29 303.412 206.586 303.19 211.177 302.747C218.077 302.082 223.33 299.373 226.943 294.669C230.554 289.979 232.36 283.155 232.36 274.128C232.36 264.942 230.526 258.319 226.862 254.204C223.198 250.089 217.807 248.135 210.691 248.419C206.293 248.593 204.094 248.683 199.697 248.863C199.697 270.858 199.697 281.86 199.697 303.855ZM158.304 419.826C158.304 404.571 158.304 396.944 158.304 381.696C162.896 380.913 165.191 380.525 169.783 379.749C169.783 337.143 169.782 294.538 169.782 251.925C165.19 252.119 162.894 252.216 158.302 252.41C158.302 237.155 158.302 229.527 158.302 214.279C180.809 214.182 192.064 214.134 214.571 214.037C230.31 213.968 242.279 219.094 250.469 229.001C258.662 238.914 262.759 253.13 262.76 272.05C262.761 283.211 261.036 292.847 257.588 301.077C254.139 309.308 249.609 316.159 244.004 321.618C250.537 339.055 253.804 347.618 260.337 364.411C264.801 363.656 267.032 363.275 271.495 362.52C271.496 376.07 271.496 382.846 271.497 396.396C258.496 399.084 251.995 400.435 238.994 403.123C231.081 380.712 223.376 358.238 215.869 335.716C215.327 335.785 214.789 335.862 214.252 335.931C208.431 336.693 205.52 337.081 199.698 337.843C199.699 352.578 199.699 359.949 199.699 374.685C205.327 373.729 208.14 373.251 213.768 372.302C213.768 386.718 213.769 393.923 213.769 408.347C191.583 412.933 180.49 415.233 158.304 419.826Z" fill="#53C057"/>
<path d="M328.589 304.694C339.649 303.447 345.18 302.83 356.24 301.583C350.807 280.862 348.089 270.325 342.657 248.897C337.029 270.845 334.216 282.005 328.589 304.694ZM278.463 394.956C278.463 381.509 278.463 374.789 278.462 361.342C282.667 360.628 284.77 360.275 288.975 359.562C300.776 310.825 312.835 262.136 325.514 213.566C340.455 213.504 347.927 213.469 362.868 213.407C374.645 255.985 386.794 298.466 399.417 340.857C403.685 340.136 405.821 339.776 410.089 339.048C410.089 350.514 410.089 356.25 410.089 367.716C387.84 372.316 376.716 374.623 354.466 379.223C354.465 367.535 354.465 361.688 354.464 349.994C360.157 349.024 363.002 348.533 368.695 347.563C366.366 339.215 365.201 335.01 362.872 326.537C346.443 328.899 338.228 330.084 321.798 332.446C319.535 342.034 318.403 346.856 316.141 356.562C321.639 355.62 324.387 355.149 329.885 354.206C329.886 366.247 329.886 372.274 329.887 384.315C309.318 388.568 299.033 390.695 278.463 394.956Z" fill="#53C057"/>
<path d="M472.082 239.268C467.49 239.462 465.194 239.559 460.601 239.753C460.601 270 460.601 300.246 460.601 330.5C465.192 329.717 467.488 329.329 472.08 328.553C472.08 339.083 472.08 344.355 472.08 354.886C450.544 359.34 439.775 361.571 418.238 366.025C418.237 354.685 418.237 349.018 418.237 337.67C422.829 336.894 425.125 336.506 429.717 335.73C429.717 304.167 429.716 272.604 429.715 241.042C425.124 241.236 422.828 241.333 418.235 241.527C418.235 230.179 418.235 224.512 418.235 213.171C439.774 213.074 450.543 213.033 472.082 212.936C472.082 223.473 472.082 228.738 472.082 239.268Z" fill="#53C057"/>
<path d="M615.341 213.393C615.34 225.537 615.339 231.606 615.338 243.75C610.745 243.556 608.448 243.466 603.855 243.272C603.852 287.069 603.848 330.86 603.845 374.657C591.556 372.115 585.411 370.847 573.122 368.304C556.939 333.063 539.763 298.161 521.707 263.633C521.706 290.513 521.705 303.952 521.704 330.832C527.459 331.802 530.338 332.287 536.094 333.264C536.093 344.217 536.093 349.69 536.092 360.642C515.137 356.306 504.659 348.145 483.706 352.481C483.706 342.118 483.706 336.942 483.707 326.585C488.299 325.803 490.594 325.56 495.186 326.343C495.187 297.136 495.188 267.928 495.189 238.721C490.597 238.534 488.301 238.589 483.709 238.783C483.71 228.426 483.71 223.244 483.71 212.887C500.592 212.818 509.033 212.942 525.916 213.012C543.737 246.265 560.736 279.747 577.169 313.547C577.171 289.751 577.172 265.954 577.174 242.157C571.418 241.914 568.54 241.79 562.783 241.554C562.784 230.199 562.785 224.526 562.785 213.171C583.808 213.261 594.318 213.31 615.341 213.393Z" fill="#53C057"/>
<path d="M678.225 246.383C673.631 246.189 671.338 246.092 666.745 245.905C666.742 282.393 666.74 318.889 666.738 355.377C671.329 356.16 673.625 356.548 678.218 357.324C678.218 370.411 678.218 376.957 678.218 390.044C656.676 385.589 645.907 383.359 624.368 378.904C624.37 366.628 624.37 360.49 624.37 348.207C628.963 348.983 631.259 349.378 635.851 350.154C635.854 314.975 635.856 279.789 635.859 244.609C631.267 244.415 628.971 244.325 624.379 244.131C624.38 231.848 624.381 225.71 624.381 213.434C645.92 213.524 656.69 213.573 678.225 213.663C678.225 226.75 678.225 233.296 678.225 246.383Z" fill="#53C057"/>
<path d="M821.477 214.273C821.477 229.514 821.477 237.134 821.477 252.382C816.884 252.188 814.591 252.091 809.997 251.897C809.997 307.035 809.991 362.167 809.991 417.305C797.701 414.762 791.556 413.494 779.266 410.945C762.715 366.815 745.632 322.886 727.848 279.13C727.848 307.991 727.848 336.859 727.848 365.727C733.605 366.697 736.48 367.189 742.237 368.159C742.237 382.216 742.237 389.24 742.237 403.29C721.28 398.953 710.799 396.785 689.842 392.448C689.842 379.188 689.842 372.558 689.842 359.292C694.435 360.067 696.735 360.455 701.329 361.238C701.329 323.274 701.329 285.31 701.335 247.353C696.742 247.159 694.442 247.062 689.856 246.868C689.856 233.608 689.856 226.978 689.856 213.712C706.739 213.788 715.177 213.822 732.06 213.892C749.795 256.172 766.824 298.632 783.312 341.3C783.312 311.13 783.319 280.952 783.319 250.782C777.562 250.54 774.68 250.422 768.93 250.179C768.93 235.728 768.93 228.502 768.93 214.051C789.948 214.141 800.458 214.183 821.477 214.273Z" fill="#53C057"/>
<path d="M888.323 468.882C876.462 466.035 865.974 458.082 856.871 445.439C847.761 432.795 840.618 416.654 835.443 397.027C830.268 377.394 827.684 355.537 827.684 331.013C827.684 307.112 830.116 286.308 834.965 268.226C839.815 250.138 846.521 235.867 855.097 225.42C863.66 214.973 873.664 209.555 885.088 209.555C893.387 209.555 900.772 212.499 907.243 218.547C913.706 224.602 918.556 233.303 921.791 244.658C921.791 232.777 921.791 226.833 921.791 214.952C931.039 215 935.66 215.021 944.909 215.063C944.909 248.489 944.909 281.916 944.909 315.342C935.016 314.421 930.07 313.956 920.177 313.035C920.177 312.231 920.177 311.823 920.177 311.012C920.177 306.966 919.692 302.152 918.722 296.575C917.752 291.005 916.159 285.615 913.949 280.44C911.739 275.272 908.857 270.928 905.296 267.416C901.742 263.91 897.377 262.047 892.202 261.797C881.741 261.292 873.553 267.873 867.623 281.167C861.692 294.469 858.734 312.419 858.727 335.349C858.727 358.703 861.852 377.803 868.108 393.023C874.356 408.243 883.196 417.139 894.627 419.349C903.46 421.053 910.602 418.129 916.055 410.384C921.493 402.639 924.375 391.825 924.7 378.108C911.766 376.154 905.296 375.177 892.362 373.23C892.362 356.14 892.362 347.591 892.362 330.5C914.482 332.966 925.539 334.199 947.659 336.666C947.659 383.643 947.659 430.62 947.659 477.597C938.799 475.512 934.372 474.466 925.511 472.388C925.511 460.597 925.511 454.708 925.511 442.917C922.38 452.429 917.669 459.71 911.365 464.712C905.053 469.72 897.377 471.051 888.323 468.882Z" fill="#53C057"/>
</svg>
