<svg width="240" height="241" viewBox="0 0 240 241" fill="none" xmlns="http://www.w3.org/2000/svg">
<path fill-rule="evenodd" clip-rule="evenodd" d="M226.694 125.3C224.184 182.056 177.375 227.3 120 227.3C62.6246 227.3 15.8165 182.056 13.306 125.3H89.4002V125.3H94.2002V125.3H94.7998V125.044L95.4823 122.732L95.4874 122.733L101.856 103.499H101.963L103.065 99.848L103.378 98.9009L103.353 98.8925L104.736 94.3119H120.564L121.936 98.8559L121.8 98.9009L129.691 122.733L129.696 122.732L130.379 125.044V125.3H130.978V125.3H135.778L214.979 125.3L226.694 125.3ZM226.694 115.7H213.6L141.441 115.7L137.032 102.385L121.556 55.4994H103.744L90.7934 94.7339L90.6909 94.6999L83.7377 115.7H13.3059C15.8161 58.9432 62.6244 13.6995 120 13.6995C177.376 13.6995 224.184 58.9432 226.694 115.7ZM120 240.5C186.274 240.5 240 186.774 240 120.5C240 54.2253 186.274 0.499512 120 0.499512C53.7258 0.499512 0 54.2253 0 120.5C0 186.774 53.7258 240.5 120 240.5ZM112.838 68.7181L117.621 84.5619H107.68L112.463 68.7181H112.838ZM60.0002 55.6991H85.2002V64.6991H79.5191V89.6059C79.5035 92.7309 78.7144 95.4809 77.152 97.8559C75.6051 100.215 73.4644 102.059 70.7301 103.387C68.0113 104.7 64.8785 105.356 61.3316 105.356C58.2535 105.356 55.441 104.825 52.8941 103.762C51.873 103.33 50.9348 102.8 50.0795 102.172L55.3001 92.9231L60.011 94.866L60.0434 94.7875C60.6518 95.0831 61.3624 95.2309 62.1754 95.2309C63.1441 95.2309 63.9566 95.0199 64.6129 94.598C65.2848 94.1762 65.7926 93.5512 66.1363 92.723C66.4801 91.8793 66.6598 90.8402 66.6754 89.6059V64.6991H60.0002V55.6991ZM148.294 95.8988V63.4991H143.4V55.6991H148.294V55.4991H169.106C172.763 55.4991 175.833 55.9912 178.317 56.9756C180.817 57.96 182.7 59.3506 183.966 61.1475C185.247 62.9444 185.888 65.0616 185.888 67.4991C185.888 69.2647 185.497 70.8741 184.716 72.3272C183.95 73.7803 182.872 74.9991 181.481 75.9834C180.091 76.9522 178.466 77.6241 176.606 77.9991V78.4678C178.669 78.5459 180.544 79.0694 182.231 80.0381C183.919 80.9912 185.263 82.3116 186.263 83.9991C187.263 85.6709 187.763 87.6397 187.763 89.9053C187.763 92.5303 187.075 94.8663 185.7 96.9131C184.341 98.96 182.403 100.569 179.888 101.741C177.372 102.913 174.372 103.499 170.888 103.499H151.2V103.699H143.4V95.8988H148.294ZM161.325 93.0928H167.419C169.606 93.0928 171.247 92.6866 172.341 91.8741C173.434 91.0459 173.981 89.8272 173.981 88.2178C173.981 87.0928 173.723 86.1397 173.208 85.3584C172.692 84.5772 171.958 83.9834 171.005 83.5772C170.067 83.1709 168.934 82.9678 167.606 82.9678H161.325V93.0928ZM161.325 74.9053H166.669C167.809 74.9053 168.817 74.7256 169.692 74.3662C170.567 74.0069 171.247 73.4912 171.731 72.8194C172.231 72.1319 172.481 71.2959 172.481 70.3116C172.481 68.8272 171.95 67.6944 170.888 66.9131C169.825 66.1162 168.481 65.7178 166.856 65.7178H161.325V74.9053ZM87.8998 179.899V160.699C87.8998 158.214 85.8851 156.199 83.3998 156.199C80.9146 156.199 78.8998 158.214 78.8998 160.699V179.899C78.8998 182.385 80.9146 184.399 83.3998 184.399C85.8851 184.399 87.8998 182.385 87.8998 179.899ZM83.3998 148.099C76.4411 148.099 70.7999 153.741 70.7999 160.699V179.899C70.7999 186.858 76.4411 192.499 83.3998 192.499C87.2455 192.499 90.6887 190.777 92.9999 188.061C95.311 190.777 98.7543 192.499 102.6 192.499C106.446 192.499 109.889 190.777 112.2 188.061C113.094 189.111 114.157 190.013 115.347 190.724C115.01 193.169 115.06 195.649 116.202 197.892C117.956 201.339 121.644 203.094 126.002 204.454C126.206 204.523 126.419 204.575 126.637 204.607C126.855 204.641 127.072 204.654 127.287 204.649H150.537C150.66 204.651 150.782 204.647 150.903 204.637C151.443 204.594 151.951 204.437 152.402 204.189C152.853 203.942 153.259 203.599 153.586 203.168C153.66 203.071 153.729 202.97 153.794 202.866L167.508 181.4C167.701 181.114 167.851 180.808 167.957 180.489C168.105 180.048 168.167 179.59 168.147 179.138C168.122 178.549 167.958 177.963 167.653 177.433C167.516 177.194 167.352 176.968 167.162 176.761L154.498 162.34C154.232 162.037 153.928 161.788 153.6 161.592V154.4C153.6 147.275 147.825 141.5 140.7 141.5C137.697 141.5 134.934 142.526 132.741 144.247C130.57 140.455 126.483 137.9 121.8 137.9C117.189 137.9 113.157 140.377 110.96 144.072C108.736 142.098 105.808 140.899 102.6 140.899C96.7689 140.899 91.8629 144.861 90.426 150.239C88.4187 148.888 86.0014 148.099 83.3998 148.099ZM127.781 197.149H148.546L159.722 179.656L153.6 172.684V179.6C153.6 186.724 147.825 192.5 140.7 192.5C136.932 192.5 133.542 190.884 131.184 188.309C129.064 190.672 126.065 192.23 122.701 192.468C122.597 193.608 122.715 194.154 122.886 194.491C123.114 194.94 123.933 195.896 127.781 197.149ZM107.1 153.499V179.899C107.1 182.385 105.085 184.399 102.6 184.399C100.115 184.399 98.1 182.385 98.1 179.899V153.499C98.1 151.014 100.115 148.999 102.6 148.999C105.085 148.999 107.1 151.014 107.1 153.499ZM126.3 179.9V150.5C126.3 148.014 124.285 146 121.8 146C119.315 146 117.3 148.014 117.3 150.5V179.9C117.3 182.385 119.315 184.4 121.8 184.4C124.285 184.4 126.3 182.385 126.3 179.9ZM145.5 154.4V179.6C145.5 182.251 143.351 184.4 140.7 184.4C138.049 184.4 135.9 182.251 135.9 179.6V154.4C135.9 151.749 138.049 149.6 140.7 149.6C143.351 149.6 145.5 151.749 145.5 154.4Z" fill="#00DC56"/>
</svg>
