<svg width="20" height="20" viewBox="0 0 20 20" fill="none" xmlns="http://www.w3.org/2000/svg">
<path fill-rule="evenodd" clip-rule="evenodd" d="M10 20C15.5228 20 20 15.5228 20 10C20 4.47715 15.5228 0 10 0C4.47715 0 0 4.47715 0 10C0 15.5228 4.47715 20 10 20ZM13.4928 6.76322C13.2983 6.76175 13.1109 6.83589 12.97 6.97L12.951 6.992L9.478 11.417L7.384 9.324C7.31534 9.25031 7.23254 9.19121 7.14054 9.15022C7.04854 9.10923 6.94923 9.08718 6.84852 9.08541C6.74782 9.08363 6.64779 9.10216 6.5544 9.13988C6.46101 9.1776 6.37618 9.23374 6.30496 9.30496C6.23374 9.37618 6.1776 9.46101 6.13988 9.5544C6.10216 9.64779 6.08363 9.74782 6.08541 9.84852C6.08718 9.94923 6.10923 10.0485 6.15022 10.1405C6.19121 10.2325 6.25031 10.3153 6.324 10.384L8.97 13.03C9.0413 13.1013 9.12624 13.1575 9.21976 13.1952C9.31327 13.233 9.41343 13.2514 9.51425 13.2496C9.61507 13.2477 9.71448 13.2255 9.80653 13.1844C9.89858 13.1432 9.98139 13.0839 10.05 13.01L14.04 8.02C14.1714 7.87663 14.242 7.6878 14.2369 7.49337C14.2317 7.29894 14.1513 7.11411 14.0124 6.97789C13.8736 6.84166 13.6873 6.76469 13.4928 6.76322Z" fill="#00DC56"/>
</svg>
